/* XPM */
static const char * icon_start_xpm[] = {
/* width height ncolors chars_per_pixel */
"16 16 27 1",
/* colors */
"  c None",
". c #266995",
"X c #34769F",
"o c #6FAEC7",
"O c #83C1D4",
"+ c #5999B8",
"@ c #79B7CD",
"# c #64A4BF",
"$ c #6AA5BE",
"% c #A1D2E0",
"& c #5A9AB8",
"* c #1B5F8E",
"= c #AEDDE9",
"- c #3B7DA3",
"; c #4C8CAD",
": c #8ECADC",
"> c #7DB4C8",
", c #024266",
"< c #6EADC6",
"1 c #4181A7",
"2 c #4F90B1",
"3 c #A9D9E5",
"4 c #93C6D6",
"5 c #5A97B5",
"6 c #4586AA",
"7 c #30739C",
"8 c #000000",
/* pixels */
"                ",
"     ,,         ",
"    ,==,        ",
"    ,=:=,       ",
"    ,3OO=,      ",
"    ,%@@@=,     ",
"    ,4o<<<=,    ",
"    ,>#####=,   ",
"    ,$+&&&&&,   ",
"    ,5222222,   ",
"    ,;66666,    ",
"    ,1----,     ",
"    ,X777,      ",
"    ,...,       ",
"    ,**,        ",
"     ,,         "
};
