/* XPM */
static const char * icon_mini_xcwcp_xpm[] = {
"32 32 4 1",
" 	c None",
".	c #FE0000",
"+	c #FF0000",
"@	c #000000",
"                                ",
"                                ",
"                                ",
"                                ",
"    ..++..            +..+++    ",
"    +.++++            .++..+    ",
"    .+++.+            ..+.+.    ",
"    .+...+            .....+    ",
"    ..++++            .+++.+    ",
"    .+++.+            ..++.+    ",
"                                ",
"                                ",
"    @@@@@@            @@@@@@    ",
"    @@@@@@            @@@@@@    ",
"    @@@@@@            @@@@@@    ",
"    @@@@@@            @@@@@@    ",
"    @@@@@@            @@@@@@    ",
"    @@@@@@            @@@@@@    ",
"     @@@@@@          @@@@@@     ",
"     @@@@@@          @@@@@@     ",
"     @@@@@@@        @@@@@@@     ",
"      @@@@@@@@    @@@@@@@@      ",
"      @@@@@@@@@@@@@@@@@@@@      ",
"       @@@@@@@@@@@@@@@@@@       ",
"        @@@@@@@@@@@@@@@@        ",
"         @@@@@@@@@@@@@@         ",
"          @@@@@@@@@@@@          ",
"            @@@@@@@@            ",
"                                ",
"                                ",
"                                ",
"                                "};
