/* XPM */
static const char * icon_stop_xpm[] = {
/* width height ncolors chars_per_pixel */
"16 16 21 1",
/* colors */
"  c None",
". c #63A2C0",
"X c #6EABC7",
"o c #5998B9",
"O c #3F7FA6",
"+ c #4F8EB2",
"@ c #034367",
"# c #64A4BF",
"$ c #5A9AB8",
"% c #AEDDE9",
"& c #3B7DA3",
"* c #94CCDC",
"= c #7CB9CE",
"- c #79B5CE",
"; c #87C0D5",
": c #024266",
"> c #4F90B1",
", c #6FAEC6",
"< c #4586AA",
"1 c #30739C",
"2 c #000000",
/* pixels */
"                ",
"                ",
"                ",
"    :::   :::   ",
"   :%%%: :%%%:  ",
"   :*==: :*==:  ",
"   :;,,: :;,,:  ",
"   :-##: :-##:  ",
"   :X$$: :X$$:  ",
"   :.>>: :.>>:  ",
"   :o<<: :o<<:  ",
"   :+&&: :+&&:  ",
"   :O11: :O11:  ",
"    @::   @::   ",
"                ",
"                "
};
